<svg width="517" height="345" viewBox="0 0 517 345" fill="none" xmlns="http://www.w3.org/2000/svg">
<g clip-path="url(#clip0_2_897)">
<path d="M0 0.00390625H517V344.663H0V0.00390625Z" fill="white"/>
<path d="M0 0.00390625H517V172.334H0V0.00390625Z" fill="#D80027"/>
<path d="M84.2933 86.1665C84.2933 61.0587 101.94 40.0839 125.504 34.9371C121.812 34.1277 118.044 33.7187 114.265 33.7173C85.297 33.7173 61.8159 57.1984 61.8159 86.1655C61.8159 115.133 85.298 138.615 114.265 138.615C118.124 138.615 121.882 138.186 125.504 137.395C101.94 132.25 84.2933 111.275 84.2933 86.1665ZM151.728 37.4645L155.448 48.9122H167.486L157.747 55.9877L161.467 67.4354L151.728 60.361L141.989 67.4354L145.71 55.9877L135.971 48.9122H148.008L151.728 37.4645Z" fill="white"/>
<path d="M122.529 59.9429L126.248 71.3906H138.285L128.546 78.466L132.266 89.9137L122.529 82.8393L112.79 89.9137L116.511 78.466L106.771 71.3906H118.809L122.529 59.9429ZM180.928 59.9429L184.648 71.3906H196.685L186.946 78.466L190.666 89.9137L180.928 82.8393L171.189 89.9137L174.91 78.466L165.171 71.3906H177.209L180.928 59.9429ZM169.688 93.66L173.408 105.108H185.445L175.707 112.183L179.427 123.631L169.688 116.556L159.951 123.631L163.671 112.183L153.933 105.108H165.969L169.688 93.66ZM133.768 93.66L137.487 105.108H149.524L139.786 112.183L143.506 123.631L133.768 116.556L124.029 123.631L127.749 112.183L118.011 105.108H130.048L133.768 93.66Z" fill="white"/>
</g>
<defs>
<clipPath id="clip0_2_897">
<rect width="517" height="344.666" fill="white"/>
</clipPath>
</defs>
</svg>
